<?xml version="1.0" encoding="UTF-8"?>
<svg version="1.1" viewBox="0 0 1024 1024" width="1024" height="1024" xmlns="http://www.w3.org/2000/svg">
<path transform="translate(0)" d="m0 0h1024v1024h-1024z" fill="#FCFCFB"/>
<path transform="translate(286,161)" d="m0 0h13l17 2 15 4 16 8 10 7 10 9 8 9 8 13 6 15 3 12 5-15 6-8 7-6 9-4 17-3 12-1h35l17 2 11 4 10 9 5 11 2 10 1 14v28l-2 19 26 3 16 2 3 1v-86l3-10 6-10 7-7 14-7 11-2h315l12 2 12 6 9 8 7 12 2 7 1 8v327l-2 12-7 14-8 8-8 5-9 3-6 1h-320l-12-3-9-5-9-8-6-10-3-10-1-198-16-8-33-17-15-6 7 14 2 10v11l-3 14-5 12-7 9-12 12-14 9-15 7-18 6-19 4-21 2h-16l-24-1 3 6 1 4v14l-5 10-9 8-8 4-8 2h-22l16 12 14 11 14 12 11 9 12 12 8 7v2h2l7 8 10 11 15 20 12 19 8 16 5 11 7 19 6 25 3 23v29l-3 24-5 21-7 20-11 23-10 15-8 10-9 10-8 8-14 11-15 10-18 10-22 9-22 6-23 4-13 1h-32l-25-3-26-6-23-8-19-9-19-12-13-10-10-9-13-13-10-13-11-18-7-16-6-20-3-19v-31l3-18 5-17 9-20 10-18 9-16 5-13 2-9 1-12-2-15-6-16-10-16-1-1v-7l3-5 11 1 15 5 13 7 12 11 6 7 8 15 4 17v22l-3 18-6 23-7 25-1 6v25l4 16 8 16 9 11 7 7 15 10 13 6 13 4 10 2 16 1 18-2 15-4 17-7 14-9 10-9 7-7 7-10 8-16 4-12 2-12v-19l-3-15-5-15-10-19-10-14-11-13-10-11-8-7-16-15-8-7-10-9-11-9-15-14-8-7-12-11-26-26-11-14-9-13-9-16-8-19-6-23-3-17-1-11v-33l3-26 5-23 7-22 8-20 13-25 14-20 11-12 5-6 8-7 16-12 18-10 15-6 19-5z" fill="#022019"/>
<path transform="translate(610,205)" d="m0 0h321l8 3 6 5 5 10v335l-5 10-8 6-6 2h-321l-10-5-5-6-3-7v-184l16 8 17 8 9 3 10 1 7-2 4-6v-143l-2-5-5-2h-10l-5 4-2 4-1 73-35-6-3-1v-87l5-10 8-6z" fill="#F8E9C3"/>
<path transform="translate(280,180)" d="m0 0h24l14 3 13 5 14 9 11 10 6 8-1 2-5-4-11-5-15-3-12-1h-36l-18 2-11 3-8 6-6 9-3 9-4 26-1 3-24 3-22 5-4 2-2 6v7l1 4h6l9-6 21-2h16l2 23 4 18 6 10 5 5 5 4 12 5 19 3h31l15-2 14-5 11-7 7-7 7-13 3-13 3-22 2-1 15 2 5 22 6 12 4 5 11 7 17 5 24 2 28 1 6 7 3 7 1 5v15l-3 10-5 9-9 10-11 8-17 8-21 6-12 2-11 1h-33l-26-3-27-5-28-8-25-10-20-11-12-9-10-9-7-9-3-6v-6l6-4h2v-8l-1-4h-12l-11 4-9 8-4 9v7l2 3h6l5-7 2 1 6 29 7 19 12 23 7 11 10 13 11 12 11 11 42 33 16 13 14 11 10 9 8 7 12 11 15 15 18 22 12 18 10 18 10 23 6 20 4 22 1 10v29l-3 23-5 19-7 19-12 23-12 16-11 12-9 9-13 10-16 10-19 9-18 6-26 6-16 2h-34l-26-4-24-6-29-11-17-9-17-12-13-12-12-12-12-17-8-16-5-13-4-18-1-8v-27l3-18 7-21 8-17 13-23 7-16 4-15 1-7v-20l-4-15-3-9 9 6 7 7 6 12 3 12v22l-4 22-9 34-3 19v21l3 16 5 14 7 13 9 11 9 9 14 10 15 8 21 7 12 2h32l18-4 14-5 19-10 11-8 14-12 11-14 9-17 6-18 2-13v-25l-3-18-7-21-10-19-10-14-11-13-12-13-12-12-8-7-13-12-11-9-13-12-11-9-10-9-8-7-13-12-11-11-9-11-11-15-10-18-8-21-5-21-2-16v-31l3-25 6-27 8-24 9-20 9-16 10-14 9-10 7-8 10-9 13-9 14-8 18-7z" fill="#DF7808"/>
<path transform="translate(613,184)" d="m0 0h315l12 2 12 6 9 8 7 12 2 7 1 8v327l-2 12-7 14-8 8-8 5-9 3-6 1h-320l-12-3-9-5-9-8-6-10-3-10v-198l5 2 15 8 1 185 5 10 5 4 7 3h321l9-4 5-5 4-8v-335l-5-10-9-6-4-1h-321l-10 5-6 9-1 3-1 88-20-4v-87l3-10 6-10 7-7 14-7z" fill="#022019"/>
<path transform="translate(277,222)" d="m0 0h47l14 2 8 4 5 5 5 8 2 9 1 9v21l-2 18-3 10-5 9-8 7-10 5-16 3h-32l-15-3-8-4-4-5-4-11-2-15v-45l3-16 4-6 6-3z" fill="#F8E9C4"/>
<path transform="translate(638,235)" d="m0 0h10l5 3 3 5v143l-4 6-3 2-7 1-12-2-20-9-17-9-19-11-23-11-29-15-16-6v-3l9-7 5-6 4-8 2-8 19 2 24 3 22 5 17 2 21 4 1-72 4-6z" fill="#F19E35"/>
<path transform="translate(448,222)" d="m0 0h36l15 2 6 4 4 6 2 12v35l-2 15-4 9-5 5-5 4-10 3-7 1h-21l-18-2-12-4-8-6-4-6-3-11-1-7v-37l3-10 7-8 9-3z" fill="#F8E9C5"/>
<path transform="translate(878,418)" d="m0 0h7l6 3 4 5 2 6-1 7-4 6-25 25-11 12-66 66-5 2h-7l-7-4-12-12-7-8-64-64-3-7 1-8 4-6 5-3h10l6 4 69 69 2 1 2-4 47-47 8-7 34-34z" fill="#022019"/>
<path transform="translate(689,235)" d="m0 0h10l6 4 3 9v134l-2 7-6 5-7 1-7-3-4-5-1-2v-141l4-6z" fill="#022019"/>
<path transform="translate(846,235)" d="m0 0h9l5 3 4 6v141l-4 6-4 3-6 1-8-3-4-6-1-3v-137l4-8z" fill="#022019"/>
<path transform="translate(741,235)" d="m0 0h10l5 3 3 5v143l-3 5-4 3-7 1-7-3-4-5-1-2v-141l4-6z" fill="#022019"/>
<path transform="translate(638,235)" d="m0 0h10l5 3 3 5v143l-4 6-3 2-7 1-7-3-4-5-1-3v-140l4-6z" fill="#022019"/>
<path transform="translate(794,235)" d="m0 0h9l5 3 4 6v141l-4 6-4 3-6 1-8-3-4-6v-143l3-5z" fill="#022019"/>
<path transform="translate(896,235)" d="m0 0h10l6 5 2 5v140l-3 5-5 4-6 1-7-3-4-5-1-2v-141l3-5z" fill="#022019"/>
<path transform="translate(592,310)" d="m0 0 22 3 15 3 1 1 1 67 3 6 4 4-8-1-20-9-17-9-1-1z" fill="#F19F36"/>
<path transform="translate(318,248)" d="m0 0h11l8 4 7 8 4 11v14l-3 10-6 8-8 6-4 1h-10l-10-5-6-8-4-11v-14l4-11 8-9z" fill="#022019"/>
<path transform="translate(460,247)" d="m0 0h7l10 4 6 7 4 9 1 4v11l-3 10-6 9-6 4-7 2-9-1-6-3-7-7-4-9-1-4v-13l4-11 7-8z" fill="#022019"/>
<path transform="translate(247,420)" d="m0 0h9l17 4 16 6 15 8 12 9 14 12 6 2 5-5 1-6-2-7 5 1 5 6 1 7-3 8-7 5-7 2h-16l-15-4-16-8-11-7-15-14-9-10-5-7z" fill="#E07B0B"/>
<path transform="translate(412,286)" d="m0 0 26 2 4 2 5 8 7 6 7 2 9-1 6-3 6-6h8l15 2 2 1-1 4-4 6-7 5-10 3-7 1h-21l-18-2-12-4-8-6-4-6-3-11z" fill="#F09C33"/>
<path transform="translate(338,63)" d="m0 0h11l5 4 1 4 2 31 1 24v15l-4 3-5-2-6-20-11-44v-10l3-4z" fill="#DF7808"/>
<path transform="translate(430,80)" d="m0 0 10 3 4 4v6l-9 16-24 40-6 7h-5l-2-2 1-9 10-26 11-26 6-11z" fill="#DF7708"/>
<path transform="translate(572,307)" d="m0 0 9 1 10 2 1 1v62l-6-2-12-7-3-1v-55z" fill="#CA6E08"/>
<path transform="translate(476,130)" d="m0 0h6l7 8-1 7-7 6-28 17-11 7h-5l-3-3v-5l26-24 12-11z" fill="#DF7808"/>
<path transform="translate(453,354)" d="m0 0h10l5 4 2 4v8l-3 5-4 3-7 1-6-3-4-5v-9l3-5z" fill="#022019"/>
<path transform="translate(406,357)" d="m0 0 9 1 5 5 1 2v9l-4 6-5 2-9-1-6-7v-9l3-5z" fill="#022019"/>
<path transform="translate(421,304)" d="m0 0h8l9 2 8 3 2-1 16 4v2h7l1 2h-24l-15-3-10-5z" fill="#DF7707"/>
<path transform="translate(607,206)" d="m0 0 4 1-8 4-6 5 1-4z" fill="#FAF0DA"/>
</svg>
